<?xml version="1.0" ?><svg viewBox="0 0 64 64" xmlns="http://www.w3.org/2000/svg"><defs><style>.cls-1{fill:#adadad;}.cls-2{fill:#e6e6e6;}.cls-3{fill:#754c24;}.cls-4{fill:#8c6239;}.cls-5{fill:#999;}.cls-6{fill:#b3b3b3;}.cls-7{fill:#75acb7;}.cls-8{fill:#9ce5f4;}.cls-9{fill:#603813;}.cls-10{fill:none;stroke:#000;stroke-linejoin:round;stroke-width:2px;}</style></defs><title/><g data-name="Layer 5" id="Layer_5"><circle class="cls-1" cx="20" cy="20" r="18"/><ellipse class="cls-2" cx="18.5" cy="20" rx="16.5" ry="17.92"/><path class="cls-3" d="M58,44V36a4,4,0,0,0-4-4H22a4,4,0,0,0-4,4v8"/><path class="cls-4" d="M51,32H22a4,4,0,0,0-4,4v8H55V36A4,4,0,0,0,51,32Z"/><path class="cls-5" d="M54,44V39a1,1,0,0,0-1-1H41a1,1,0,0,0-1,1v5"/><path class="cls-6" d="M50,38H41a1,1,0,0,0-1,1v5H51V39A1,1,0,0,0,50,38Z"/><path class="cls-5" d="M36,44V39a1,1,0,0,0-1-1H23a1,1,0,0,0-1,1v5"/><path class="cls-6" d="M32,38H23a1,1,0,0,0-1,1v5H33V39A1,1,0,0,0,32,38Z"/><path class="cls-7" d="M60,50V46a2,2,0,0,0-2-2H18a2,2,0,0,0-2,2v4"/><path class="cls-8" d="M55,44H18a2,2,0,0,0-2,2v4H57V46A2,2,0,0,0,55,44Z"/><polyline class="cls-9" points="60 56 60 62 56 62 56 56"/><polyline class="cls-9" points="20 56 20 62 16 62 16 56"/><rect class="cls-3" height="6" width="48" x="14" y="50"/><rect class="cls-4" height="6" width="45" x="14" y="50"/><rect class="cls-10" height="6" width="48" x="14" y="50"/><polyline class="cls-10" points="60 56 60 62 56 62 56 56"/><polyline class="cls-10" points="20 56 20 62 16 62 16 56"/><path class="cls-10" d="M60,50V46a2,2,0,0,0-2-2H18a2,2,0,0,0-2,2v4"/><path class="cls-10" d="M54,44V39a1,1,0,0,0-1-1H41a1,1,0,0,0-1,1v5"/><path class="cls-10" d="M36,44V39a1,1,0,0,0-1-1H23a1,1,0,0,0-1,1v5"/><path class="cls-10" d="M58,44V36a4,4,0,0,0-4-4H22a4,4,0,0,0-4,4v8"/><path class="cls-10" d="M33.42,32A18,18,0,1,0,18,37.89"/><line class="cls-10" x1="20" x2="20" y1="2" y2="7"/><line class="cls-10" x1="2" x2="7" y1="20" y2="20"/><line class="cls-10" x1="33" x2="38" y1="20" y2="20"/><polyline class="cls-10" points="29 20 20 20 20 13"/><polyline class="cls-10" points="41 20 48 20 42 26 49 26"/><polyline class="cls-10" points="62 16 55 16 61 10 54 10"/></g></svg>